<svg xmlns="http://www.w3.org/2000/svg" width="662.72" height="275.657" viewBox="0 0 662.72 275.657"><defs><style>.a{fill:#2d9cb1;}</style></defs><g transform="matrix(-0.208, -0.978, 0.978, -0.208, 50.277, 342.398)"><path class="a" d="M130.584,0h65.292V39.523a32.645,32.645,0,0,1-5.044,17.433l-55.444,87.786a16.323,16.323,0,0,1-13.8,7.606H8.161A8.161,8.161,0,0,1,0,144.186v-5.441A19.043,19.043,0,0,1,19.043,119.7H97.251a6.121,6.121,0,0,0,5.65-8.475L95.62,93.752a10.882,10.882,0,0,0-10.045-6.7H43.528A21.764,21.764,0,0,1,21.764,65.292v-2.72a8.161,8.161,0,0,1,8.161-8.161H80.052a16.322,16.322,0,0,0,8.737-2.535l38-24.08a8.162,8.162,0,0,0,3.793-6.894Z" transform="translate(0 473.778)"/><path class="a" d="M65.166,509.166l59.961-8.944L173.589,0H0L52.82,388.686Z" transform="translate(68.232 0)"/></g></svg>