<svg xmlns="http://www.w3.org/2000/svg" width="691.67" height="322.392" viewBox="0 0 691.67 322.392"><defs><style>.a{fill:#fde33c;}</style></defs><g transform="matrix(0.208, -0.978, 0.978, 0.208, -2.503, 181.574)"><path class="a" d="M139.011,130.581a13.817,13.817,0,0,1-13.868-13.869V87.056h-2.72v59.922a13.817,13.817,0,0,1-13.868,13.869,13.6,13.6,0,0,1-13.337-13.6V87.056H92.5V160.24a13.817,13.817,0,0,1-13.868,13.869,13.6,13.6,0,0,1-13.337-13.6V87.056h-2.72v59.582A13.817,13.817,0,0,1,48.7,160.507a13.6,13.6,0,0,1-13.337-13.6V66.655L24.6,81.454a13.6,13.6,0,1,1-22-16L45.315,6.722A16.323,16.323,0,0,1,58.515,0h67.193A16.323,16.323,0,0,1,141.6,12.584L150.611,50.9a65.294,65.294,0,0,1,1.736,14.954v51.131A13.6,13.6,0,0,1,139.011,130.581Z" transform="translate(0 503.187)"/><path class="a" d="M32.472,517.58l89.063-9.94,19.248-346.264L173.589,0H0L47.4,287.484Z" transform="translate(12.041 0)"/></g></svg>