<svg xmlns="http://www.w3.org/2000/svg" width="778.825" height="484.859" viewBox="0 0 778.825 484.859"><defs><style>.a{fill:red;}</style></defs><g transform="translate(0 201.118) rotate(-68)"><path class="a" d="M158.061,136.059a16.323,16.323,0,0,1-16.595-16.323h-2.721v10.61a16.531,16.531,0,0,1-16.051,16.595,16.323,16.323,0,0,1-16.6-16.323V119.736h-2.72v16.051a16.531,16.531,0,0,1-16.051,16.595,16.323,16.323,0,0,1-16.595-16.323V119.736h-2.72v10.61A16.531,16.531,0,0,1,51.961,146.94a16.323,16.323,0,0,1-16.595-16.323V84.369l-2.72,2.414v16.357a16.531,16.531,0,0,1-16.051,16.595A16.323,16.323,0,0,1,0,103.413V80.833A32.724,32.724,0,0,1,10.95,56.416L48.935,22.648A16.4,16.4,0,0,0,54.41,10.44V8.161A8.142,8.142,0,0,1,62.571,0h81.615a8.142,8.142,0,0,1,8.161,8.161v.986a33.129,33.129,0,0,0,2.55,12.684l16.663,39.549a32.5,32.5,0,0,1,2.55,12.684v45.4A16.509,16.509,0,0,1,158.061,136.059Z" transform="translate(4.24 615.548)"/><path class="a" d="M59.482,618.909l90.7,65.872L216.913,0,0,69.632,79.135,501.393Z" transform="translate(0 0)"/></g></svg>