<svg xmlns="http://www.w3.org/2000/svg" width="695.36" height="173.589" viewBox="0 0 695.36 173.589"><defs><style>.a{fill:#57a349;}</style></defs><g transform="translate(0 173.589) rotate(-90)"><path class="a" d="M39.454,532.808h83.424L173.589,0H0L52.82,388.686Z" transform="translate(0 0)"/><path class="a" d="M73.453,13.6a13.6,13.6,0,0,0,13.6,13.6v2.72H76.174a13.6,13.6,0,1,0,0,27.2H87.056v2.72H16.323a16.323,16.323,0,1,0,0,32.646H87.056v4.615L26.677,120.828a16.323,16.323,0,1,0,11.937,30.385l64.728-25.425,8.458,10.573a13.6,13.6,0,0,0,17.371,3.313l38.087-21.764a13.6,13.6,0,0,0,6.853-11.81V24.484a13.6,13.6,0,0,0-10.487-13.241L117.376.361A13.6,13.6,0,0,0,114.261,0h-27.2A13.6,13.6,0,0,0,73.453,13.6Z" transform="translate(14.218 695.36) rotate(-90)"/></g></svg>