<svg xmlns="http://www.w3.org/2000/svg" width="692.326" height="438.073" viewBox="0 0 692.326 438.073"><defs><style>.a{fill:#8a4c95;}</style></defs><g transform="matrix(-0.438, -0.899, 0.899, -0.438, 83.574, 453.405)"><path class="a" d="M163.66,141.091a13.624,13.624,0,0,1-16.391-10.066L136.8,87.056h-3.775l14.827,59.273a13.6,13.6,0,0,1-26.389,6.6L105,87.056H99.865l-17.581,76.48a13.6,13.6,0,1,1-26.525-6.053L71.946,87.09H68.613L56.779,139.051A13.6,13.6,0,0,1,30.254,133L43.517,74.643v-27L22.909,67.026A13.592,13.592,0,1,1,4.274,47.235L49.74,4.421A16.293,16.293,0,0,1,60.928,0h73.691a16.292,16.292,0,0,1,15.643,11.7l8.91,30.027a32.972,32.972,0,0,1,1.36,9.284V65.292a32.97,32.97,0,0,0,.884,7.549L173.76,124.7A13.672,13.672,0,0,1,163.66,141.091Z" transform="translate(0 503.184)"/><path class="a" d="M39.454,532.808h83.424L173.589,0H0L52.82,388.686Z" transform="translate(17.058 0)"/></g></svg>