<svg xmlns="http://www.w3.org/2000/svg" width="662.72" height="275.657" viewBox="0 0 662.72 275.657"><defs><style>.a{fill:#4078b9;}</style></defs><g transform="matrix(0.208, -0.978, 0.978, 0.208, 0, 212.219)"><path class="a" d="M130.584,152.347h65.292V112.825a32.645,32.645,0,0,0-5.044-17.433L135.388,7.606A16.323,16.323,0,0,0,121.587,0H8.161A8.161,8.161,0,0,0,0,8.161V13.6A19.043,19.043,0,0,0,19.043,32.646H97.251a6.121,6.121,0,0,1,5.65,8.475L95.62,58.6a10.882,10.882,0,0,1-10.045,6.7H43.528A21.764,21.764,0,0,0,21.764,87.056v2.72a8.161,8.161,0,0,0,8.161,8.161H80.052a16.322,16.322,0,0,1,8.737,2.535l38,24.08a8.162,8.162,0,0,1,3.793,6.894Z" transform="translate(0)"/><path class="a" d="M65.166,0l59.961,8.944,48.461,500.221H0L52.82,120.479Z" transform="translate(68.232 116.959)"/></g></svg>