<svg xmlns="http://www.w3.org/2000/svg" width="691.67" height="322.392" viewBox="0 0 691.67 322.392"><defs><style>.a{fill:#c2fd3c;}</style></defs><g transform="matrix(-0.208, -0.978, 0.978, -0.208, 31.675, 322.392)"><path class="a" d="M139.011,43.53A13.817,13.817,0,0,0,125.143,57.4V87.056h-2.72V27.134a13.817,13.817,0,0,0-13.868-13.869,13.6,13.6,0,0,0-13.337,13.6V87.056H92.5V13.871A13.817,13.817,0,0,0,78.629,0,13.6,13.6,0,0,0,65.292,13.6V87.056h-2.72V27.474A13.817,13.817,0,0,0,48.7,13.6,13.6,13.6,0,0,0,35.366,27.2v80.252L24.6,92.658a13.6,13.6,0,1,0-22,16l42.712,58.73a16.323,16.323,0,0,0,13.2,6.722h67.193A16.323,16.323,0,0,0,141.6,161.527l9.014-38.311a65.294,65.294,0,0,0,1.736-14.954V57.13A13.6,13.6,0,0,0,139.011,43.53Z"/><path class="a" d="M32.472,0l89.063,9.94L140.783,356.2,173.589,517.58H0L47.4,230.1Z" transform="translate(12.041 159.719)"/></g></svg>