<svg xmlns="http://www.w3.org/2000/svg" width="778.824" height="484.859" viewBox="0 0 778.824 484.859"><defs><style>.a{fill:#ff6c00;}</style></defs><g transform="translate(65.223 484.859) rotate(-112)"><path class="a" d="M158.061,16.325a16.323,16.323,0,0,0-16.595,16.323h-2.721V22.038A16.531,16.531,0,0,0,122.694,5.443a16.323,16.323,0,0,0-16.6,16.323V32.648h-2.72V16.6A16.531,16.531,0,0,0,87.328,0,16.323,16.323,0,0,0,70.733,16.325V32.648h-2.72V22.038A16.531,16.531,0,0,0,51.961,5.443,16.323,16.323,0,0,0,35.366,21.766V68.014L32.646,65.6V49.243A16.531,16.531,0,0,0,16.595,32.648,16.323,16.323,0,0,0,0,48.971v22.58A32.724,32.724,0,0,0,10.95,95.967l37.985,33.768a16.4,16.4,0,0,1,5.475,12.208v2.278a8.142,8.142,0,0,0,8.161,8.161h81.615a8.142,8.142,0,0,0,8.161-8.161v-.986a33.129,33.129,0,0,1,2.55-12.684L171.561,91a32.5,32.5,0,0,0,2.55-12.684V32.92a16.509,16.509,0,0,0-16.051-16.595Z"/><path class="a" d="M33.167,65.872,123.866,0,190.6,684.781-26.315,615.149,52.82,183.388Z" transform="translate(22.075 83.149)"/></g></svg>