<svg xmlns="http://www.w3.org/2000/svg" width="695.36" height="173.589" viewBox="0 0 695.36 173.589"><defs><style>.a{fill:#49a380;}</style></defs><g transform="translate(0 173.589) rotate(-90)"><path class="a" d="M39.454,0h83.424l50.711,532.808H0L52.82,144.122Z" transform="translate(0 162.552)"/><path class="a" d="M73.453,138.745a13.6,13.6,0,0,1,13.6-13.6v-2.72H76.174a13.6,13.6,0,1,1,0-27.2H87.056V92.5H16.323a16.323,16.323,0,1,1,0-32.646H87.056V55.236L26.677,31.52A16.323,16.323,0,1,1,38.615,1.135l64.728,25.425L111.8,15.987a13.6,13.6,0,0,1,17.371-3.313l38.087,21.764a13.6,13.6,0,0,1,6.853,11.81v81.615A13.6,13.6,0,0,1,163.625,141.1l-46.248,10.882a13.6,13.6,0,0,1-3.116.361h-27.2A13.6,13.6,0,0,1,73.453,138.745Z" transform="translate(166.565) rotate(90)"/></g></svg>