<svg xmlns="http://www.w3.org/2000/svg" width="692.326" height="438.073" viewBox="0 0 692.326 438.073"><defs><style>.a{fill:#954c68;}</style></defs><g transform="matrix(0.438, -0.899, 0.899, 0.438, 0, 156.496)"><path class="a" d="M163.66,33.023a13.624,13.624,0,0,0-16.391,10.066L136.8,87.059h-3.775l14.827-59.273a13.6,13.6,0,0,0-26.389-6.6L105,87.059H99.865L82.284,10.579a13.6,13.6,0,1,0-26.525,6.053L71.946,87.025H68.613L56.779,35.064a13.6,13.6,0,0,0-26.525,6.053L43.517,99.471v27L22.909,107.089A13.592,13.592,0,1,0,4.274,126.88L49.74,169.694a16.293,16.293,0,0,0,11.188,4.421h73.691a16.292,16.292,0,0,0,15.643-11.7l8.91-30.027a32.972,32.972,0,0,0,1.36-9.284V108.823a32.97,32.97,0,0,1,.884-7.549L173.76,49.414A13.672,13.672,0,0,0,163.66,33.023Z"/><path class="a" d="M39.454,0h83.424l50.711,532.808H0L52.82,144.122Z" transform="translate(17.058 144.49)"/></g></svg>